<svg width="819" height="489" viewBox="0 0 819 489" fill="none" xmlns="http://www.w3.org/2000/svg">
<g clip-path="url(#clip0_3_2)">
<path d="M477.066 86.205C492.416 86.205 504.859 75.9899 504.859 63.3889C504.859 50.788 492.416 40.5729 477.066 40.5729C461.717 40.5729 449.273 50.788 449.273 63.3889C449.273 75.9899 461.717 86.205 477.066 86.205Z" fill="#F2F2F2"/>
<path d="M692.664 424.821C733.974 398.99 753.706 355.584 741.353 314.177C741.046 313.148 740.722 312.122 740.381 311.098C732.192 286.519 711.932 263.159 682.403 255.306C657.609 248.712 630.546 253.782 604.68 251.16C553.903 246.012 514.537 212.285 486.839 176.972C459.14 141.659 437.852 102.131 401.046 72.9577C340.377 24.8698 241.412 14.5164 166.191 45.818C90.9712 77.1197 43.0566 146.565 45.1001 215.776C47.1436 284.987 97.1932 351.158 169.878 386.265C196.579 399.162 227.462 408.299 258.196 405.102C284.864 402.328 309.095 390.564 335.638 387.072C377.368 381.581 418.833 397.071 454.927 415.12C491.021 433.17 525.886 454.564 566.902 462.932C606.728 471.057 656.069 447.703 692.664 424.821Z" fill="url(#paint0_linear_3_2)"/>
<path d="M633.31 47.2714C632.404 46.7758 631.488 46.3058 630.583 45.8273C604.405 32.0832 576.347 20.9176 546.988 12.5612L540.181 89.6551H497.025V1.30734C494.308 0.845903 491.571 0.410104 488.833 -6.10352e-05V89.6551H437.548C409.315 89.6551 382.238 80.4479 362.275 64.059C342.311 47.6701 331.095 25.4419 331.095 2.26449C328.347 2.75156 325.62 3.27273 322.893 3.82817V89.6552H281.122L274.637 16.1416C244.466 25.6406 215.823 38.1323 189.346 53.3385C188.888 53.5948 188.43 53.8597 187.982 54.1161C185.682 55.4406 183.413 56.7907 181.154 58.1579V352.272H304.261L302.085 327.534L290.115 191.709H531.177L519.207 327.534L517.031 352.272H638.775V50.2451C636.963 49.2368 635.142 48.2456 633.31 47.2714ZM322.893 169.278H288.137L281.715 96.3887H322.893V169.278ZM488.833 169.278H430.46V167.834C430.46 167.14 430.293 166.453 429.969 165.811C429.645 165.17 429.17 164.588 428.572 164.097C427.973 163.607 427.263 163.218 426.481 162.953C425.7 162.688 424.862 162.552 424.016 162.553H398.639C397.794 162.553 396.958 162.69 396.177 162.955C395.397 163.22 394.687 163.609 394.09 164.1C393.493 164.59 393.019 165.172 392.696 165.813C392.372 166.454 392.206 167.141 392.207 167.834V169.278H331.095V96.3887H488.833V169.278ZM497.025 169.278V96.3887H539.587L533.165 169.278H497.025Z" fill="url(#paint1_linear_3_2)"/>
<path d="M0 371.106C9.04255 379.902 18.8231 388.168 29.2701 395.844L789.73 396.698C800.177 389.022 809.957 380.756 819 371.96L0 371.106Z" fill="#2E7875"/>
<path d="M515.693 291.893V365.128C515.693 366.061 516.145 366.956 516.949 367.616C517.753 368.276 518.843 368.647 519.98 368.648H652.179C653.316 368.647 654.406 368.276 655.21 367.616C656.013 366.956 656.465 366.061 656.466 365.128V291.893C656.464 290.961 656.011 290.067 655.207 289.408C654.404 288.749 653.315 288.379 652.179 288.377H519.98C518.844 288.379 517.755 288.749 516.952 289.408C516.148 290.067 515.695 290.961 515.693 291.893Z" fill="#3F3D56"/>
<path d="M518.794 292.804V364.225C518.795 364.723 519.036 365.201 519.466 365.554C519.895 365.907 520.478 366.105 521.085 366.106H651.078C651.686 366.105 652.268 365.907 652.697 365.554C653.127 365.201 653.369 364.723 653.37 364.225V292.804C653.37 292.305 653.128 291.826 652.699 291.473C652.269 291.12 651.686 290.92 651.078 290.919H521.085C520.477 290.92 519.894 291.12 519.465 291.473C519.035 291.826 518.794 292.305 518.794 292.804Z" fill="black"/>
<path d="M199.53 288.381V376.019H274.319V288.381C274.32 287.75 274.075 287.136 273.619 286.629C273.164 286.121 272.523 285.747 271.789 285.561C271.443 285.467 271.081 285.421 270.717 285.424H203.142C202.668 285.423 202.199 285.499 201.761 285.648C201.323 285.796 200.925 286.013 200.589 286.288C200.254 286.563 199.988 286.889 199.806 287.248C199.624 287.607 199.53 287.992 199.53 288.381ZM228.717 318.494C228.736 316.766 229.586 315.114 231.081 313.898C232.576 312.682 234.596 312 236.7 312C238.805 312 240.825 312.682 242.32 313.898C243.815 315.114 244.665 316.766 244.684 318.494V328.662C244.673 330.395 243.827 332.053 242.331 333.275C240.835 334.497 238.811 335.183 236.7 335.183C234.59 335.183 232.566 334.497 231.069 333.275C229.573 332.053 228.727 330.395 228.717 328.662V318.494Z" fill="#2F2E41"/>
<path d="M199.301 373.217V381.668C199.303 382.105 199.514 382.525 199.891 382.835C200.267 383.146 200.777 383.322 201.31 383.325H272.539C273.072 383.323 273.583 383.148 273.96 382.837C274.336 382.526 274.548 382.106 274.547 381.668V373.217H199.301Z" fill="#3F3D56"/>
<path d="M81.8771 156.342V316.357C81.879 318.397 82.8667 320.352 84.6231 321.794C86.3795 323.236 88.7612 324.046 91.2452 324.048H380.095C382.579 324.046 384.96 323.236 386.717 321.794C388.473 320.352 389.461 318.397 389.463 316.357V156.342C389.457 154.304 388.468 152.352 386.712 150.912C384.956 149.472 382.576 148.662 380.095 148.66H91.2452C88.7634 148.662 86.384 149.472 84.6281 150.912C82.8722 152.352 81.883 154.304 81.8771 156.342Z" fill="#3F3D56"/>
<path d="M88.6533 158.333V314.383C88.6556 315.473 89.1838 316.517 90.1223 317.288C91.0607 318.058 92.3329 318.492 93.66 318.494H377.69C379.017 318.492 380.289 318.058 381.228 317.288C382.166 316.517 382.695 315.473 382.697 314.383V158.333C382.697 157.242 382.17 156.196 381.231 155.424C380.292 154.651 379.019 154.216 377.69 154.214H93.66C92.3313 154.216 91.0579 154.651 90.1193 155.424C89.1807 156.196 88.6535 157.242 88.6533 158.333Z" fill="white"/>
<path d="M141.364 382.753C141.654 383.05 142.021 383.29 142.439 383.455C142.858 383.619 143.316 383.703 143.779 383.701H312.759C313.221 383.701 313.677 383.616 314.094 383.452C314.511 383.289 314.879 383.051 315.17 382.757C315.461 382.462 315.668 382.118 315.777 381.749C315.886 381.38 315.893 380.996 315.798 380.625L313.175 370.397C313.066 369.979 312.832 369.591 312.494 369.267C312.156 368.944 311.725 368.694 311.239 368.542C310.888 368.429 310.513 368.371 310.136 368.371H146.392C146.014 368.371 145.64 368.429 145.289 368.542C144.803 368.694 144.372 368.944 144.034 369.267C143.695 369.591 143.461 369.979 143.353 370.397L140.73 380.625C140.636 380.996 140.645 381.38 140.755 381.748C140.864 382.116 141.073 382.459 141.364 382.753Z" fill="#2F2E41"/>
<path d="M368.472 175.711H102.707C102.43 175.706 102.168 175.612 101.974 175.45C101.781 175.288 101.673 175.07 101.673 174.843C101.673 174.616 101.781 174.399 101.974 174.236C102.168 174.074 102.43 173.981 102.707 173.976H368.472C368.749 173.981 369.012 174.074 369.205 174.236C369.398 174.399 369.506 174.616 369.506 174.843C369.506 175.07 369.398 175.288 369.205 175.45C369.012 175.612 368.749 175.706 368.472 175.711Z" fill="#3F3D56"/>
<path d="M120.798 169.546C124.218 169.546 126.991 167.218 126.991 164.348C126.991 161.477 124.218 159.15 120.798 159.15C117.377 159.15 114.604 161.477 114.604 164.348C114.604 167.218 117.377 169.546 120.798 169.546Z" fill="#3F3D56"/>
<path d="M142.194 169.546C145.615 169.546 148.388 167.218 148.388 164.348C148.388 161.477 145.615 159.15 142.194 159.15C138.774 159.15 136.001 161.477 136.001 164.348C136.001 167.218 138.774 169.546 142.194 169.546Z" fill="#3F3D56"/>
<path d="M163.591 169.546C167.012 169.546 169.785 167.218 169.785 164.348C169.785 161.477 167.012 159.15 163.591 159.15C160.17 159.15 157.397 161.477 157.397 164.348C157.397 167.218 160.17 169.546 163.591 169.546Z" fill="#3F3D56"/>
<path d="M355.588 160.435H340.391C340.091 160.441 339.805 160.543 339.595 160.719C339.385 160.896 339.267 161.133 339.267 161.379C339.267 161.626 339.385 161.863 339.595 162.039C339.805 162.216 340.091 162.318 340.391 162.324H355.588C355.89 162.32 356.179 162.219 356.391 162.042C356.603 161.866 356.722 161.627 356.722 161.379C356.722 161.131 356.603 160.893 356.391 160.716C356.179 160.54 355.89 160.439 355.588 160.435Z" fill="#3F3D56"/>
<path d="M355.588 163.981H340.391C340.09 163.987 339.804 164.089 339.594 164.265C339.384 164.442 339.266 164.679 339.266 164.925C339.266 165.172 339.384 165.409 339.594 165.586C339.804 165.762 340.09 165.864 340.391 165.87H355.588C355.891 165.867 356.18 165.766 356.392 165.589C356.605 165.412 356.724 165.174 356.724 164.925C356.724 164.677 356.605 164.438 356.392 164.262C356.18 164.085 355.891 163.984 355.588 163.981Z" fill="#3F3D56"/>
<path d="M355.588 167.527H340.391C340.091 167.533 339.805 167.635 339.595 167.812C339.385 167.988 339.267 168.225 339.267 168.472C339.267 168.718 339.385 168.955 339.595 169.132C339.805 169.308 340.091 169.41 340.391 169.416H355.588C355.89 169.412 356.179 169.311 356.391 169.135C356.603 168.958 356.722 168.72 356.722 168.472C356.722 168.224 356.603 167.985 356.391 167.809C356.179 167.632 355.89 167.531 355.588 167.527Z" fill="#3F3D56"/>
<path d="M721.963 376.925C722.422 378.022 723.292 378.97 724.448 379.635C725.604 380.3 726.987 380.647 728.399 380.626L755.974 380.044C757.396 380.021 758.771 379.621 759.893 378.904C761.015 378.187 761.824 377.19 762.2 376.064L766.102 341.809C767.486 342.324 768.994 342.578 770.513 342.553C771.834 342.526 773.134 342.286 774.341 341.846C775.548 341.406 776.638 340.775 777.548 339.99C778.458 339.204 779.171 338.279 779.646 337.267C780.12 336.256 780.347 335.177 780.314 334.093C780.281 333.009 779.988 331.942 779.452 330.951C778.917 329.96 778.148 329.065 777.191 328.318C776.234 327.571 775.107 326.986 773.875 326.596C772.643 326.207 771.329 326.02 770.009 326.047C769.401 326.046 768.795 326.097 768.201 326.202C767.555 325.628 766.77 325.172 765.896 324.862C765.023 324.553 764.08 324.397 763.128 324.405L720.711 325.304C720.359 325.314 720.009 325.35 719.665 325.41C718.734 325.553 717.852 325.857 717.077 326.303C716.302 326.748 715.653 327.325 715.172 327.994C714.691 328.664 714.391 329.41 714.291 330.182C714.191 330.954 714.293 331.735 714.592 332.473L721.963 376.925ZM766.902 339.484L769.679 331.321C769.995 330.378 770.002 329.383 769.7 328.437C769.835 328.437 769.954 328.384 770.089 328.384C771.992 328.352 773.834 328.941 775.21 330.021C776.586 331.102 777.384 332.587 777.428 334.15C777.473 335.712 776.761 337.226 775.448 338.359C774.135 339.491 772.329 340.15 770.425 340.191C769.194 340.222 767.976 339.978 766.902 339.484Z" fill="#2F2E41"/>
<path d="M719.664 325.41C720.568 329.652 730.728 332.634 742.945 332.116C754.179 331.691 763.365 328.453 765.048 324.615C764.425 324.463 763.777 324.393 763.128 324.405L720.711 325.304C720.359 325.314 720.009 325.35 719.664 325.41Z" fill="#3F3D56"/>
<path d="M745.184 358.102C745.24 358.09 745.293 358.071 745.341 358.045L751.33 354.828C751.402 354.789 751.461 354.736 751.503 354.673C751.544 354.611 751.565 354.541 751.565 354.47C751.565 354.399 751.544 354.33 751.503 354.267C751.462 354.205 751.402 354.152 751.33 354.113L745.106 350.766C745.048 350.735 744.984 350.714 744.917 350.703C744.85 350.692 744.781 350.693 744.714 350.704C744.647 350.715 744.583 350.737 744.526 350.769C744.47 350.801 744.421 350.841 744.383 350.888C744.346 350.935 744.32 350.988 744.307 351.043C744.295 351.098 744.295 351.155 744.309 351.21C744.324 351.265 744.351 351.317 744.39 351.364C744.428 351.41 744.478 351.45 744.535 351.48L750.095 354.47L744.771 357.33C744.668 357.386 744.593 357.469 744.557 357.566C744.522 357.663 744.53 357.767 744.58 357.86C744.629 357.952 744.717 358.027 744.828 358.072C744.938 358.116 745.065 358.127 745.184 358.102Z" fill="#6C63FF"/>
<path d="M735.726 358.46C735.826 358.439 735.917 358.394 735.986 358.331C736.055 358.267 736.099 358.188 736.113 358.104C736.128 358.02 736.111 357.934 736.065 357.858C736.019 357.781 735.947 357.718 735.857 357.675L730.337 355.077L735.672 351.824C735.727 351.791 735.773 351.749 735.808 351.701C735.843 351.652 735.866 351.599 735.876 351.544C735.886 351.488 735.883 351.432 735.866 351.377C735.85 351.323 735.82 351.272 735.779 351.227C735.739 351.182 735.687 351.144 735.629 351.115C735.57 351.086 735.505 351.067 735.438 351.059C735.37 351.051 735.301 351.054 735.235 351.067C735.169 351.081 735.107 351.105 735.052 351.139L729.078 354.781C729.009 354.823 728.953 354.879 728.917 354.943C728.88 355.008 728.864 355.078 728.869 355.149C728.874 355.22 728.901 355.289 728.946 355.349C728.992 355.409 729.055 355.459 729.13 355.494L735.339 358.417C735.456 358.472 735.595 358.487 735.726 358.46Z" fill="#6C63FF"/>
<path d="M744.588 360.922C744.639 360.912 744.687 360.895 744.731 360.873C744.789 360.843 744.84 360.805 744.881 360.76C744.921 360.715 744.95 360.663 744.966 360.609C744.983 360.554 744.986 360.497 744.975 360.442C744.965 360.387 744.941 360.333 744.905 360.285L736.416 348.828C736.344 348.731 736.229 348.662 736.095 348.635C735.96 348.609 735.819 348.627 735.701 348.686C735.583 348.745 735.499 348.84 735.466 348.95C735.434 349.06 735.455 349.176 735.527 349.273L744.016 360.73C744.074 360.808 744.161 360.869 744.264 360.903C744.367 360.938 744.481 360.944 744.588 360.922Z" fill="#6C63FF"/>
<path d="M267.344 222.879H221.346C219.469 222.879 217.948 224.128 217.948 225.669V229.358C217.948 230.898 219.469 232.147 221.346 232.147H267.344C269.22 232.147 270.742 230.898 270.742 229.358V225.669C270.742 224.128 269.22 222.879 267.344 222.879Z" fill="#6C63FF"/>
<path d="M294.156 241.415H194.534C192.657 241.415 191.136 242.664 191.136 244.204V247.893C191.136 249.434 192.657 250.683 194.534 250.683H294.156C296.032 250.683 297.554 249.434 297.554 247.893V244.204C297.554 242.664 296.032 241.415 294.156 241.415Z" fill="#E6E6E6"/>
<path d="M294.156 259.95H194.534C192.657 259.95 191.136 261.199 191.136 262.74V266.429C191.136 267.969 192.657 269.218 194.534 269.218H294.156C296.032 269.218 297.554 267.969 297.554 266.429V262.74C297.554 261.199 296.032 259.95 294.156 259.95Z" fill="#E6E6E6"/>
<path d="M649.45 371.054H652.794C653.074 371.054 653.302 370.867 653.302 370.637V369.324C653.302 369.094 653.074 368.907 652.794 368.907H649.45C649.169 368.907 648.942 369.094 648.942 369.324V370.637C648.942 370.867 649.169 371.054 649.45 371.054Z" fill="#D0251A"/>
<path d="M640.731 371.054H644.074C644.355 371.054 644.582 370.867 644.582 370.637V369.324C644.582 369.094 644.355 368.907 644.074 368.907H640.731C640.45 368.907 640.222 369.094 640.222 369.324V370.637C640.222 370.867 640.45 371.054 640.731 371.054Z" fill="#D0251A"/>
<path d="M632.011 371.054H635.354C635.635 371.054 635.863 370.867 635.863 370.637V369.324C635.863 369.094 635.635 368.907 635.354 368.907H632.011C631.73 368.907 631.503 369.094 631.503 369.324V370.637C631.503 370.867 631.73 371.054 632.011 371.054Z" fill="#D0251A"/>
<path d="M512.361 379.411C512.603 379.66 512.911 379.861 513.261 379.999C513.612 380.136 513.995 380.207 514.384 380.205H655.938C656.325 380.205 656.707 380.134 657.056 379.997C657.406 379.86 657.713 379.661 657.957 379.414C658.201 379.167 658.375 378.879 658.466 378.57C658.557 378.261 658.563 377.94 658.484 377.629L656.286 369.06C656.195 368.711 655.999 368.386 655.716 368.114C655.433 367.843 655.071 367.634 654.665 367.507C654.37 367.412 654.057 367.363 653.74 367.364H516.572C516.256 367.363 515.943 367.412 515.648 367.507C515.241 367.634 514.88 367.843 514.597 368.114C514.313 368.386 514.117 368.711 514.026 369.06L511.829 377.629C511.751 377.939 511.758 378.261 511.85 378.569C511.942 378.877 512.116 379.165 512.361 379.411Z" fill="#041328"/>
<path d="M623.291 371.054H626.635C626.915 371.054 627.143 370.867 627.143 370.637V369.324C627.143 369.094 626.915 368.907 626.635 368.907H623.291C623.011 368.907 622.783 369.094 622.783 369.324V370.637C622.783 370.867 623.011 371.054 623.291 371.054Z" fill="#D0251A"/>
<path d="M614.572 371.054H617.915C618.196 371.054 618.423 370.867 618.423 370.637V369.324C618.423 369.094 618.196 368.907 617.915 368.907H614.572C614.291 368.907 614.064 369.094 614.064 369.324V370.637C614.064 370.867 614.291 371.054 614.572 371.054Z" fill="#B21515"/>
<path d="M605.852 371.054H609.196C609.476 371.054 609.704 370.867 609.704 370.637V369.324C609.704 369.094 609.476 368.907 609.196 368.907H605.852C605.571 368.907 605.344 369.094 605.344 369.324V370.637C605.344 370.867 605.571 371.054 605.852 371.054Z" fill="#B21515"/>
<path d="M597.133 371.054H600.476C600.757 371.054 600.984 370.867 600.984 370.637V369.324C600.984 369.094 600.757 368.907 600.476 368.907H597.133C596.852 368.907 596.624 369.094 596.624 369.324V370.637C596.624 370.867 596.852 371.054 597.133 371.054Z" fill="#D0251A"/>
<path d="M588.413 371.054H591.756C592.037 371.054 592.265 370.867 592.265 370.637V369.324C592.265 369.094 592.037 368.907 591.756 368.907H588.413C588.132 368.907 587.905 369.094 587.905 369.324V370.637C587.905 370.867 588.132 371.054 588.413 371.054Z" fill="#D0251A"/>
<path d="M579.693 371.054H583.037C583.318 371.054 583.545 370.867 583.545 370.637V369.324C583.545 369.094 583.318 368.907 583.037 368.907H579.693C579.413 368.907 579.185 369.094 579.185 369.324V370.637C579.185 370.867 579.413 371.054 579.693 371.054Z" fill="#D0251A"/>
<path d="M570.974 371.054H574.317C574.598 371.054 574.825 370.867 574.825 370.637V369.324C574.825 369.094 574.598 368.907 574.317 368.907H570.974C570.693 368.907 570.466 369.094 570.466 369.324V370.637C570.466 370.867 570.693 371.054 570.974 371.054Z" fill="#D0251A"/>
<path d="M562.254 371.054H565.598C565.878 371.054 566.106 370.867 566.106 370.637V369.324C566.106 369.094 565.878 368.907 565.598 368.907H562.254C561.974 368.907 561.746 369.094 561.746 369.324V370.637C561.746 370.867 561.974 371.054 562.254 371.054Z" fill="#D0251A"/>
<path d="M553.535 371.054H556.878C557.159 371.054 557.386 370.867 557.386 370.637V369.324C557.386 369.094 557.159 368.907 556.878 368.907H553.535C553.254 368.907 553.026 369.094 553.026 369.324V370.637C553.026 370.867 553.254 371.054 553.535 371.054Z" fill="#B21515"/>
<path d="M544.815 371.054H548.158C548.439 371.054 548.667 370.867 548.667 370.637V369.324C548.667 369.094 548.439 368.907 548.158 368.907H544.815C544.534 368.907 544.307 369.094 544.307 369.324V370.637C544.307 370.867 544.534 371.054 544.815 371.054Z" fill="#D0251A"/>
<path d="M536.095 371.054H539.439C539.72 371.054 539.947 370.867 539.947 370.637V369.324C539.947 369.094 539.72 368.907 539.439 368.907H536.095C535.815 368.907 535.587 369.094 535.587 369.324V370.637C535.587 370.867 535.815 371.054 536.095 371.054Z" fill="#B21515"/>
<path d="M527.376 371.054H530.719C531 371.054 531.227 370.867 531.227 370.637V369.324C531.227 369.094 531 368.907 530.719 368.907H527.376C527.095 368.907 526.868 369.094 526.868 369.324V370.637C526.868 370.867 527.095 371.054 527.376 371.054Z" fill="#D0251A"/>
<path d="M518.656 371.054H522C522.28 371.054 522.508 370.867 522.508 370.637V369.324C522.508 369.094 522.28 368.907 522 368.907H518.656C518.376 368.907 518.148 369.094 518.148 369.324V370.637C518.148 370.867 518.376 371.054 518.656 371.054Z" fill="#D0251A"/>
<path d="M649.553 374.633H652.897C653.177 374.633 653.405 374.447 653.405 374.216V372.903C653.405 372.673 653.177 372.486 652.897 372.486H649.553C649.272 372.486 649.045 372.673 649.045 372.903V374.216C649.045 374.447 649.272 374.633 649.553 374.633Z" fill="#D0251A"/>
<path d="M640.834 374.633H644.177C644.458 374.633 644.685 374.447 644.685 374.216V372.903C644.685 372.673 644.458 372.486 644.177 372.486H640.834C640.553 372.486 640.325 372.673 640.325 372.903V374.216C640.325 374.447 640.553 374.633 640.834 374.633Z" fill="#D0251A"/>
<path d="M632.114 374.633H635.457C635.738 374.633 635.966 374.447 635.966 374.216V372.903C635.966 372.673 635.738 372.486 635.457 372.486H632.114C631.833 372.486 631.606 372.673 631.606 372.903V374.216C631.606 374.447 631.833 374.633 632.114 374.633Z" fill="#D0251A"/>
<path d="M623.394 374.633H626.738C627.019 374.633 627.246 374.447 627.246 374.216V372.903C627.246 372.673 627.019 372.486 626.738 372.486H623.394C623.114 372.486 622.886 372.673 622.886 372.903V374.216C622.886 374.447 623.114 374.633 623.394 374.633Z" fill="#B21515"/>
<path d="M614.675 374.633H618.018C618.299 374.633 618.526 374.447 618.526 374.216V372.903C618.526 372.673 618.299 372.486 618.018 372.486H614.675C614.394 372.486 614.167 372.673 614.167 372.903V374.216C614.167 374.447 614.394 374.633 614.675 374.633Z" fill="#B21515"/>
<path d="M605.955 374.633H609.299C609.579 374.633 609.807 374.447 609.807 374.216V372.903C609.807 372.673 609.579 372.486 609.299 372.486H605.955C605.674 372.486 605.447 372.673 605.447 372.903V374.216C605.447 374.447 605.674 374.633 605.955 374.633Z" fill="#B21515"/>
<path d="M597.236 374.633H600.579C600.86 374.633 601.087 374.447 601.087 374.216V372.903C601.087 372.673 600.86 372.486 600.579 372.486H597.236C596.955 372.486 596.727 372.673 596.727 372.903V374.216C596.727 374.447 596.955 374.633 597.236 374.633Z" fill="#D0251A"/>
<path d="M588.516 374.633H591.859C592.14 374.633 592.368 374.447 592.368 374.216V372.903C592.368 372.673 592.14 372.486 591.859 372.486H588.516C588.235 372.486 588.008 372.673 588.008 372.903V374.216C588.008 374.447 588.235 374.633 588.516 374.633Z" fill="#D0251A"/>
<path d="M579.796 374.633H583.14C583.421 374.633 583.648 374.447 583.648 374.216V372.903C583.648 372.673 583.421 372.486 583.14 372.486H579.796C579.516 372.486 579.288 372.673 579.288 372.903V374.216C579.288 374.447 579.516 374.633 579.796 374.633Z" fill="#D0251A"/>
<path d="M571.077 374.633H574.42C574.701 374.633 574.928 374.447 574.928 374.216V372.903C574.928 372.673 574.701 372.486 574.42 372.486H571.077C570.796 372.486 570.569 372.673 570.569 372.903V374.216C570.569 374.447 570.796 374.633 571.077 374.633Z" fill="#D0251A"/>
<path d="M562.357 374.633H565.701C565.981 374.633 566.209 374.447 566.209 374.216V372.903C566.209 372.673 565.981 372.486 565.701 372.486H562.357C562.077 372.486 561.849 372.673 561.849 372.903V374.216C561.849 374.447 562.077 374.633 562.357 374.633Z" fill="#D0251A"/>
<path d="M553.638 374.633H556.981C557.262 374.633 557.489 374.447 557.489 374.216V372.903C557.489 372.673 557.262 372.486 556.981 372.486H553.638C553.357 372.486 553.13 372.673 553.13 372.903V374.216C553.13 374.447 553.357 374.633 553.638 374.633Z" fill="#B21515"/>
<path d="M544.918 374.633H548.262C548.542 374.633 548.77 374.447 548.77 374.216V372.903C548.77 372.673 548.542 372.486 548.262 372.486H544.918C544.637 372.486 544.41 372.673 544.41 372.903V374.216C544.41 374.447 544.637 374.633 544.918 374.633Z" fill="#B21515"/>
<path d="M536.198 374.633H539.542C539.823 374.633 540.05 374.447 540.05 374.216V372.903C540.05 372.673 539.823 372.486 539.542 372.486H536.198C535.918 372.486 535.69 372.673 535.69 372.903V374.216C535.69 374.447 535.918 374.633 536.198 374.633Z" fill="#B21515"/>
<path d="M527.479 374.633H530.822C531.103 374.633 531.33 374.447 531.33 374.216V372.903C531.33 372.673 531.103 372.486 530.822 372.486H527.479C527.198 372.486 526.971 372.673 526.971 372.903V374.216C526.971 374.447 527.198 374.633 527.479 374.633Z" fill="#B21515"/>
<path d="M518.759 374.633H522.103C522.383 374.633 522.611 374.447 522.611 374.216V372.903C522.611 372.673 522.383 372.486 522.103 372.486H518.759C518.479 372.486 518.251 372.673 518.251 372.903V374.216C518.251 374.447 518.479 374.633 518.759 374.633Z" fill="#D0251A"/>
<path d="M577.181 378.928H611.043C611.323 378.928 611.551 378.742 611.551 378.511V377.198C611.551 376.968 611.323 376.781 611.043 376.781H577.181C576.9 376.781 576.672 376.968 576.672 377.198V378.511C576.672 378.742 576.9 378.928 577.181 378.928Z" fill="#B21515"/>
<path d="M541.305 306.544H538.345C537.447 306.544 536.72 307.142 536.72 307.878C536.72 308.615 537.447 309.212 538.345 309.212H541.305C542.202 309.212 542.93 308.615 542.93 307.878C542.93 307.142 542.202 306.544 541.305 306.544Z" fill="#EEEEEE"/>
<path d="M575.158 306.544H572.198C571.3 306.544 570.573 307.142 570.573 307.878C570.573 308.615 571.3 309.212 572.198 309.212H575.158C576.055 309.212 576.783 308.615 576.783 307.878C576.783 307.142 576.055 306.544 575.158 306.544Z" fill="#EEEEEE"/>
<path d="M584.75 306.544H581.79C580.892 306.544 580.165 307.142 580.165 307.878C580.165 308.615 580.892 309.212 581.79 309.212H584.75C585.647 309.212 586.374 308.615 586.374 307.878C586.374 307.142 585.647 306.544 584.75 306.544Z" fill="#EEEEEE"/>
<path d="M565.95 306.322H547.553C546.655 306.322 545.928 306.919 545.928 307.656C545.928 308.393 546.655 308.99 547.553 308.99H565.95C566.847 308.99 567.575 308.393 567.575 307.656C567.575 306.919 566.847 306.322 565.95 306.322Z" fill="#EEEEEE"/>
<path d="M611.087 306.322H592.69C591.793 306.322 591.066 306.919 591.066 307.656C591.066 308.393 591.793 308.99 592.69 308.99H611.087C611.985 308.99 612.712 308.393 612.712 307.656C612.712 306.919 611.985 306.322 611.087 306.322Z" fill="#EEEEEE"/>
<path d="M550.332 312.566H547.372C546.475 312.566 545.747 313.163 545.747 313.9C545.747 314.637 546.475 315.234 547.372 315.234H550.332C551.23 315.234 551.957 314.637 551.957 313.9C551.957 313.163 551.23 312.566 550.332 312.566Z" fill="#EEEEEE"/>
<path d="M584.185 312.566H581.225C580.328 312.566 579.6 313.163 579.6 313.9C579.6 314.637 580.328 315.234 581.225 315.234H584.185C585.083 315.234 585.81 314.637 585.81 313.9C585.81 313.163 585.083 312.566 584.185 312.566Z" fill="#EEEEEE"/>
<path d="M593.777 312.566H590.817C589.92 312.566 589.192 313.163 589.192 313.9C589.192 314.637 589.92 315.234 590.817 315.234H593.777C594.674 315.234 595.402 314.637 595.402 313.9C595.402 313.163 594.674 312.566 593.777 312.566Z" fill="#EEEEEE"/>
<path d="M574.977 312.343H556.58C555.683 312.343 554.956 312.941 554.956 313.677C554.956 314.414 555.683 315.011 556.58 315.011H574.977C575.875 315.011 576.602 314.414 576.602 313.677C576.602 312.941 575.875 312.343 574.977 312.343Z" fill="#EEEEEE"/>
<path d="M620.115 312.343H601.718C600.821 312.343 600.093 312.941 600.093 313.677C600.093 314.414 600.821 315.011 601.718 315.011H620.115C621.012 315.011 621.74 314.414 621.74 313.677C621.74 312.941 621.012 312.343 620.115 312.343Z" fill="#EEEEEE"/>
<path d="M559.36 318.587H556.4C555.502 318.587 554.775 319.184 554.775 319.921C554.775 320.658 555.502 321.255 556.4 321.255H559.36C560.257 321.255 560.985 320.658 560.985 319.921C560.985 319.184 560.257 318.587 559.36 318.587Z" fill="#EEEEEE"/>
<path d="M593.213 318.587H590.253C589.355 318.587 588.628 319.184 588.628 319.921C588.628 320.658 589.355 321.255 590.253 321.255H593.213C594.11 321.255 594.838 320.658 594.838 319.921C594.838 319.184 594.11 318.587 593.213 318.587Z" fill="#EEEEEE"/>
<path d="M602.805 318.587H599.845C598.947 318.587 598.22 319.184 598.22 319.921C598.22 320.658 598.947 321.255 599.845 321.255H602.805C603.702 321.255 604.43 320.658 604.43 319.921C604.43 319.184 603.702 318.587 602.805 318.587Z" fill="#EEEEEE"/>
<path d="M584.005 318.365H565.608C564.71 318.365 563.983 318.962 563.983 319.699C563.983 320.436 564.71 321.033 565.608 321.033H584.005C584.902 321.033 585.63 320.436 585.63 319.699C585.63 318.962 584.902 318.365 584.005 318.365Z" fill="#EEEEEE"/>
<path d="M629.142 318.365H610.745C609.848 318.365 609.121 318.962 609.121 319.699C609.121 320.436 609.848 321.033 610.745 321.033H629.142C630.04 321.033 630.767 320.436 630.767 319.699C630.767 318.962 630.04 318.365 629.142 318.365Z" fill="#EEEEEE"/>
<path d="M568.387 324.609H565.427C564.53 324.609 563.802 325.206 563.802 325.943C563.802 326.679 564.53 327.277 565.427 327.277H568.387C569.285 327.277 570.012 326.679 570.012 325.943C570.012 325.206 569.285 324.609 568.387 324.609Z" fill="#EEEEEE"/>
<path d="M602.24 324.609H599.28C598.383 324.609 597.655 325.206 597.655 325.943C597.655 326.679 598.383 327.277 599.28 327.277H602.24C603.138 327.277 603.865 326.679 603.865 325.943C603.865 325.206 603.138 324.609 602.24 324.609Z" fill="#EEEEEE"/>
<path d="M611.832 324.609H608.872C607.975 324.609 607.247 325.206 607.247 325.943C607.247 326.679 607.975 327.277 608.872 327.277H611.832C612.73 327.277 613.457 326.679 613.457 325.943C613.457 325.206 612.73 324.609 611.832 324.609Z" fill="#EEEEEE"/>
<path d="M593.032 324.386H574.635C573.738 324.386 573.011 324.984 573.011 325.72C573.011 326.457 573.738 327.054 574.635 327.054H593.032C593.93 327.054 594.657 326.457 594.657 325.72C594.657 324.984 593.93 324.386 593.032 324.386Z" fill="#EEEEEE"/>
<path d="M575.158 348.552H572.198C571.3 348.552 570.573 349.15 570.573 349.886C570.573 350.623 571.3 351.22 572.198 351.22H575.158C576.055 351.22 576.783 350.623 576.783 349.886C576.783 349.15 576.055 348.552 575.158 348.552Z" fill="#EEEEEE"/>
<path d="M584.75 348.552H581.79C580.892 348.552 580.165 349.15 580.165 349.886C580.165 350.623 580.892 351.22 581.79 351.22H584.75C585.647 351.22 586.374 350.623 586.374 349.886C586.374 349.15 585.647 348.552 584.75 348.552Z" fill="#EEEEEE"/>
<path d="M611.087 348.775H592.69C591.793 348.775 591.066 349.372 591.066 350.109C591.066 350.846 591.793 351.443 592.69 351.443H611.087C611.985 351.443 612.712 350.846 612.712 350.109C612.712 349.372 611.985 348.775 611.087 348.775Z" fill="#EEEEEE"/>
<path d="M541.305 348.552H538.345C537.447 348.552 536.72 349.15 536.72 349.886C536.72 350.623 537.447 351.22 538.345 351.22H541.305C542.202 351.22 542.93 350.623 542.93 349.886C542.93 349.15 542.202 348.552 541.305 348.552Z" fill="#EEEEEE"/>
<path d="M565.95 348.775H547.553C546.655 348.775 545.928 349.372 545.928 350.109C545.928 350.846 546.655 351.443 547.553 351.443H565.95C566.847 351.443 567.575 350.846 567.575 350.109C567.575 349.372 566.847 348.775 565.95 348.775Z" fill="#EEEEEE"/>
<path d="M550.332 342.531H547.372C546.475 342.531 545.747 343.128 545.747 343.865C545.747 344.602 546.475 345.199 547.372 345.199H550.332C551.23 345.199 551.957 344.602 551.957 343.865C551.957 343.128 551.23 342.531 550.332 342.531Z" fill="#EEEEEE"/>
<path d="M584.185 342.531H581.225C580.328 342.531 579.6 343.128 579.6 343.865C579.6 344.602 580.328 345.199 581.225 345.199H584.185C585.083 345.199 585.81 344.602 585.81 343.865C585.81 343.128 585.083 342.531 584.185 342.531Z" fill="#EEEEEE"/>
<path d="M593.777 342.531H590.817C589.92 342.531 589.192 343.128 589.192 343.865C589.192 344.602 589.92 345.199 590.817 345.199H593.777C594.674 345.199 595.402 344.602 595.402 343.865C595.402 343.128 594.674 342.531 593.777 342.531Z" fill="#EEEEEE"/>
<path d="M574.977 342.753H556.58C555.683 342.753 554.956 343.351 554.956 344.087C554.956 344.824 555.683 345.421 556.58 345.421H574.977C575.875 345.421 576.602 344.824 576.602 344.087C576.602 343.351 575.875 342.753 574.977 342.753Z" fill="#EEEEEE"/>
<path d="M559.36 336.51H556.4C555.502 336.51 554.775 337.107 554.775 337.844C554.775 338.58 555.502 339.178 556.4 339.178H559.36C560.257 339.178 560.985 338.58 560.985 337.844C560.985 337.107 560.257 336.51 559.36 336.51Z" fill="#EEEEEE"/>
<path d="M593.213 336.51H590.253C589.355 336.51 588.628 337.107 588.628 337.844C588.628 338.58 589.355 339.178 590.253 339.178H593.213C594.11 339.178 594.838 338.58 594.838 337.844C594.838 337.107 594.11 336.51 593.213 336.51Z" fill="#EEEEEE"/>
<path d="M602.805 336.51H599.845C598.947 336.51 598.22 337.107 598.22 337.844C598.22 338.58 598.947 339.178 599.845 339.178H602.805C603.702 339.178 604.43 338.58 604.43 337.844C604.43 337.107 603.702 336.51 602.805 336.51Z" fill="#EEEEEE"/>
<path d="M584.005 336.732H565.608C564.71 336.732 563.983 337.329 563.983 338.066C563.983 338.803 564.71 339.4 565.608 339.4H584.005C584.902 339.4 585.63 338.803 585.63 338.066C585.63 337.329 584.902 336.732 584.005 336.732Z" fill="#EEEEEE"/>
<path d="M568.387 330.488H565.427C564.53 330.488 563.802 331.085 563.802 331.822C563.802 332.559 564.53 333.156 565.427 333.156H568.387C569.285 333.156 570.012 332.559 570.012 331.822C570.012 331.085 569.285 330.488 568.387 330.488Z" fill="#EEEEEE"/>
<path d="M602.24 330.488H599.28C598.383 330.488 597.655 331.085 597.655 331.822C597.655 332.559 598.383 333.156 599.28 333.156H602.24C603.138 333.156 603.865 332.559 603.865 331.822C603.865 331.085 603.138 330.488 602.24 330.488Z" fill="#EEEEEE"/>
<path d="M611.832 330.488H608.872C607.975 330.488 607.247 331.085 607.247 331.822C607.247 332.559 607.975 333.156 608.872 333.156H611.832C612.73 333.156 613.457 332.559 613.457 331.822C613.457 331.085 612.73 330.488 611.832 330.488Z" fill="#EEEEEE"/>
<path d="M593.032 330.711H574.635C573.738 330.711 573.011 331.308 573.011 332.045C573.011 332.781 573.738 333.378 574.635 333.378H593.032C593.93 333.378 594.657 332.781 594.657 332.045C594.657 331.308 593.93 330.711 593.032 330.711Z" fill="#EEEEEE"/>
<path d="M525.568 419.121L511.672 401.09L555.288 372.547L573.291 356.174C575.63 354.046 578.608 352.46 581.927 351.574C585.247 350.688 588.791 350.532 592.207 351.123C595.623 351.713 598.79 353.029 601.392 354.939C603.994 356.85 605.94 359.287 607.035 362.008C608.657 366.04 608.308 370.432 606.061 374.257C603.814 378.082 599.845 381.041 594.991 382.509L566.524 391.118L525.568 419.121Z" fill="#FFB6B6"/>
<path d="M302.601 322.019L302.827 322.603L302.838 322.623L309.63 339.575L317.444 359.11L332.144 395.821L332.286 401.523V401.543L333.379 447.417L330.351 453.636L333.759 463.832C333.759 463.832 332.191 448.419 323.785 457.27C319.023 462.3 313.454 467.447 308.882 472.273C315.544 474.485 322.312 476.487 329.187 478.277C330.672 478.667 332.168 479.038 333.664 479.408C333.985 479.486 334.305 479.564 334.626 479.642C357.416 485.175 380.977 488.284 404.731 488.893C405.966 488.922 407.177 488.942 408.353 488.961C408.769 488.971 409.172 488.981 409.576 488.981C410.906 488.99 412.224 489 413.554 489C416.237 489 418.909 488.968 421.569 488.903C441.256 488.447 460.828 486.274 479.954 482.42C479.824 475.938 479.468 468.364 478.957 460.273C478.719 456.305 473.388 452.007 473.067 447.854C472.842 444.735 477.627 441.8 477.378 438.632C475.763 419.127 473.744 426.614 472.248 412.801C472.094 411.446 471.951 410.15 471.821 408.912C470.859 400.041 470.194 394.495 470.194 394.495L476.582 361.439L486.616 309.541L485.844 308.498L484.977 308.147L432.054 286.643L429.18 280.6C428.343 278.858 426.89 277.363 425.009 276.305C423.128 275.247 420.904 274.675 418.624 274.663L383.761 274.546C381.952 274.539 380.167 274.887 378.554 275.56C376.941 276.233 375.547 277.212 374.487 278.416L365.048 289.148L302.601 322.019Z" fill="#3F3D56"/>
<path d="M340.183 387.652L332.286 401.523L326.896 410.998L317.622 450.858L312.979 454.903L309.001 440.582L267.368 448.171C266.002 441.942 267.002 448.381 266.159 441.548C266.396 441.353 266.646 441.158 266.895 440.963C267.56 440.456 268.118 439.979 268.106 439.521C267.631 415.95 269.056 375.837 280.954 351.535C282.818 347.568 285.275 343.805 288.269 340.335C288.506 340.072 288.732 339.809 288.957 339.545C294.443 333.238 297.911 327.029 302.827 322.613V322.603C302.857 322.583 302.885 322.56 302.91 322.535C302.928 322.528 302.944 322.518 302.957 322.506L336.727 307.806L338.176 341.222L339.209 365.241L340.183 387.652Z" fill="#3F3D56"/>
<path d="M461.952 391.592L471.816 408.917L475.259 414.95L484.53 454.806L489.157 458.842L493.144 444.524L495.018 444.209L528.804 438.464L538.651 464.139C540.871 461.103 541.745 457.531 541.127 454.027C540.508 450.523 538.435 447.302 535.257 444.908C534.584 444.408 534.024 443.922 534.04 443.462C534.6 415.739 532.535 365.117 513.88 344.282C507.956 337.67 504.401 331.085 499.229 326.484C499.213 326.471 499.213 326.458 499.197 326.458L486.611 309.54L485.843 308.502L484.978 308.147L461.952 391.592Z" fill="#3F3D56"/>
<path d="M402.2 266.401C427.815 266.401 448.58 249.354 448.58 228.325C448.58 207.297 427.815 190.25 402.2 190.25C376.584 190.25 355.819 207.297 355.819 228.325C355.819 249.354 376.584 266.401 402.2 266.401Z" fill="#FFB6B6"/>
<path d="M466.819 203.941C466.46 203.626 466.027 203.373 465.546 203.198C465.064 203.024 464.545 202.93 464.019 202.924L464.717 201.335C464.944 200.834 465.006 200.293 464.895 199.766C464.784 199.24 464.504 198.747 464.085 198.338C463.665 197.93 463.121 197.62 462.508 197.441C461.895 197.261 461.234 197.219 460.595 197.319L458.055 197.72L458.294 196.327C458.386 195.809 458.312 195.279 458.079 194.791C457.846 194.303 457.462 193.873 456.965 193.544C456.469 193.214 455.876 192.997 455.246 192.913C454.616 192.828 453.969 192.88 453.371 193.063C452.827 193.239 452.241 193.313 451.658 193.279C451.074 193.245 450.507 193.104 449.998 192.867C449.488 192.636 449.044 192.318 448.699 191.933C448.354 191.547 448.115 191.105 448 190.636L447.115 187.133L447.021 186.945C442.712 181.049 434.427 176.759 424.288 175.187C415.264 173.777 406.01 174.495 397.09 175.17C393.551 175.443 389.553 175.751 386.223 177.425C383.391 178.861 380.997 181.732 381.487 184.629C372.691 182.416 363.26 186.834 358.587 192.405C353.049 199.036 352.144 207.342 351.998 213.836C351.602 229.2 355.464 241.77 363.448 251.204C364.031 251.887 364.176 253.315 365.332 253.793L365.092 253.477C366.383 254.007 367.695 254.861 367.205 255.775C365.8 258.407 375.137 264.227 381.716 266.149C393.717 269.661 409.674 269.362 420.895 268.098L421.29 265.919C425.34 265.466 428.192 264.603 428.993 263.252C430.409 262.261 431.616 261.373 432.668 260.552L432.678 260.544C432.699 260.527 432.74 260.501 432.761 260.484C437.83 256.493 439.007 254.22 439.537 250.76C440.047 247.367 439.142 243.923 438.216 240.822C457.722 243.3 430.534 223.766 448.708 219.989C448.916 219.936 449.128 219.893 449.343 219.86C449.874 219.758 450.404 219.655 450.914 219.536C453.373 218.988 455.727 218.163 457.909 217.083C462.989 214.545 464.665 211.179 467.288 207.385C467.666 206.844 467.825 206.219 467.741 205.6C467.656 204.98 467.334 204.399 466.819 203.941Z" fill="#2F2E41"/>
<path d="M566.241 394.302C566.231 395.798 566.21 397.891 566.126 400.48C566.116 400.839 566.106 401.207 566.095 401.583C565.96 406.342 565.825 410.333 565.606 414.768C565.596 415.075 565.585 415.375 565.564 415.682C565.273 421.869 564.815 429.072 564.024 440.48C562.556 461.552 559.996 443.377 557.424 450.768C557.3 451.136 557.164 451.572 557.039 452.084C556.65 453.945 555.993 455.76 555.082 457.493C553.719 458.16 552.314 458.801 550.929 459.442C546.984 461.245 542.977 462.979 538.938 464.629C536.669 465.551 534.39 466.457 532.1 467.329C531.735 467.466 531.381 467.602 531.027 467.73C519.301 472.183 507.215 475.969 494.856 479.061C492.441 479.659 490.037 480.24 487.601 480.779C485.061 481.36 482.521 481.907 479.95 482.419C460.824 486.274 441.253 488.448 421.566 488.905C418.912 488.974 416.237 488.999 413.552 488.999C412.219 488.999 410.908 488.991 409.575 488.982C409.169 488.982 408.763 488.974 408.357 488.965C407.181 488.939 405.963 488.922 404.735 488.897C380.981 488.288 357.42 485.178 334.631 479.642L333.663 479.412C332.164 479.036 330.675 478.668 329.187 478.275C322.317 476.489 315.547 474.49 308.879 472.276C303.789 470.593 298.758 468.787 293.786 466.859C293.74 466.849 293.698 466.831 293.661 466.808C292.62 466.414 291.569 466.004 290.528 465.586C290.392 465.526 290.247 465.466 290.101 465.406C286.218 463.851 282.377 462.222 278.578 460.518C275.383 454.494 270.886 453.34 268.096 448.042C267.284 446.469 266.698 444.823 266.348 443.138C266.348 443.121 266.337 443.103 266.337 443.078C266.629 446.257 265.099 437.438 266.327 443.044C266.316 442.941 266.306 442.83 266.296 442.702C266.264 442.394 266.223 442.018 266.16 441.548C262.59 412.931 262.819 380.203 261.268 353.235C261.164 351.491 261.056 349.822 260.945 348.227C260.914 347.697 260.873 347.176 260.831 346.663C260.904 346.51 260.987 346.347 261.081 346.193C261.101 346.149 261.125 346.106 261.154 346.065C261.184 346.012 261.219 345.961 261.258 345.911C261.278 345.886 261.31 345.852 261.331 345.826C261.346 345.797 261.363 345.768 261.383 345.741C261.476 345.621 261.58 345.493 261.695 345.373C261.747 345.322 261.788 345.279 261.841 345.236C261.876 345.193 261.918 345.153 261.965 345.117C261.997 345.076 262.036 345.038 262.08 345.006C262.122 344.972 262.163 344.929 262.215 344.886C262.238 344.859 262.266 344.836 262.299 344.818C262.381 344.74 262.471 344.669 262.569 344.604C262.941 344.324 263.337 344.066 263.756 343.835C263.901 343.758 264.058 343.681 264.203 343.596C265.252 343.081 266.357 342.646 267.503 342.297C267.899 342.177 268.294 342.066 268.721 341.947C268.877 341.912 269.023 341.87 269.179 341.827C269.408 341.767 269.637 341.707 269.876 341.665C271.063 341.374 272.343 341.126 273.728 340.896C273.894 340.87 274.071 340.844 274.248 340.81C274.498 340.767 274.758 340.733 275.018 340.699C275.372 340.648 275.737 340.596 276.101 340.545C279.192 340.144 282.7 339.845 286.572 339.648C286.937 339.631 287.301 339.614 287.665 339.597C288.092 339.58 288.519 339.563 288.956 339.545C289.32 339.528 289.695 339.52 290.07 339.511C290.434 339.494 290.809 339.486 291.194 339.477C292.245 339.451 293.328 339.426 294.431 339.409C297.575 339.357 300.885 339.375 304.361 339.434C305.975 339.469 307.619 339.503 309.306 339.562C309.42 339.562 309.524 339.571 309.628 339.571C311.096 339.614 312.574 339.665 314.094 339.733C315.155 339.776 316.227 339.819 317.3 339.87C318.309 339.921 319.329 339.973 320.36 340.033C321.161 340.067 321.963 340.118 322.775 340.161C323.462 340.203 324.149 340.246 324.836 340.28L325.772 340.332C326.283 340.366 326.793 340.391 327.313 340.434C328.458 340.511 329.603 340.588 330.769 340.665C331.924 340.75 333.1 340.836 334.277 340.921C335.453 341.007 336.639 341.101 337.826 341.195C337.951 341.203 338.066 341.212 338.18 341.22C339.263 341.314 340.345 341.4 341.438 341.494C341.688 341.511 341.948 341.528 342.198 341.554C343.24 341.639 344.302 341.74 345.354 341.832C345.677 341.86 345.998 341.888 346.321 341.917C347.145 341.991 347.957 342.055 348.787 342.135C349.88 342.237 350.993 342.331 352.076 342.451C352.919 342.528 353.762 342.605 354.605 342.69C355.927 342.818 357.27 342.955 358.613 343.1C359.123 343.151 359.633 343.203 360.143 343.263C363.973 343.656 367.846 344.091 371.78 344.544C377.744 345.236 383.802 345.988 389.902 346.8C396.012 347.612 402.157 348.469 408.337 349.372C409.898 349.603 411.459 349.834 413.031 350.073C413.739 350.184 414.447 350.295 415.154 350.406C416.362 350.586 417.569 350.774 418.777 350.962C419.984 351.15 421.192 351.338 422.399 351.534C423.835 351.765 425.282 351.996 426.719 352.226C436.181 353.764 445.59 355.405 454.771 357.123C456.28 357.405 457.79 357.695 459.289 357.977C462.286 358.55 465.256 359.131 468.199 359.72C469.011 359.874 469.812 360.037 470.613 360.199C472.612 360.609 474.611 361.019 476.578 361.438L476.921 361.515C478.368 361.805 479.784 362.104 481.199 362.412C484.541 363.13 487.826 363.856 491.057 364.591C493.201 365.078 495.321 365.571 497.417 366.069C500.55 366.813 503.62 367.565 506.608 368.325C507.347 368.513 508.086 368.701 508.814 368.881C511 369.436 513.155 370 515.247 370.564C516.913 371.008 518.536 371.461 520.139 371.914C521.742 372.367 523.314 372.82 524.855 373.273C525.844 373.563 526.822 373.871 527.8 374.162C529.206 374.589 530.59 375.016 531.943 375.443C532.36 375.572 532.766 375.708 533.171 375.836C533.432 375.93 533.682 376.007 533.931 376.093C534.421 376.255 534.92 376.409 535.399 376.571C535.888 376.725 536.367 376.887 536.846 377.058C537.314 377.212 537.793 377.375 538.251 377.537C538.719 377.691 539.177 377.853 539.635 378.024C540.021 378.152 540.395 378.289 540.76 378.426C541.499 378.69 542.238 378.955 542.956 379.229C543.31 379.366 543.664 379.494 544.018 379.63L544.83 379.938C544.944 379.989 545.059 380.032 545.173 380.075C545.433 380.177 545.704 380.288 545.964 380.391C546.568 380.622 547.161 380.869 547.744 381.1C548.525 381.425 549.285 381.75 550.013 382.066C550.752 382.39 551.47 382.715 552.157 383.031C552.272 383.083 552.376 383.134 552.491 383.185C552.647 383.254 552.803 383.33 552.959 383.399C553.49 383.647 554 383.903 554.51 384.151C555.509 384.655 556.456 385.151 557.341 385.646C557.539 385.757 557.726 385.868 557.924 385.971C558.58 386.355 559.204 386.731 559.787 387.116C559.787 387.124 559.787 387.124 559.798 387.124C559.995 387.244 560.183 387.372 560.37 387.492C560.526 387.611 560.693 387.714 560.849 387.834C561.39 388.218 561.89 388.586 562.348 388.962C562.501 389.078 562.647 389.2 562.785 389.329C562.846 389.37 562.901 389.416 562.952 389.466C563.16 389.637 563.347 389.808 563.524 389.978C563.552 390.002 563.576 390.028 563.597 390.055C563.847 390.295 564.076 390.534 564.294 390.773C564.398 390.893 564.513 391.012 564.607 391.132C564.732 391.277 564.856 391.431 564.961 391.576C565.054 391.696 565.137 391.824 565.221 391.944C565.442 392.252 565.63 392.575 565.783 392.909C565.9 393.136 565.994 393.371 566.064 393.61C566.143 393.837 566.202 394.069 566.241 394.302Z" fill="#6C63FF"/>
<path opacity="0.2" d="M566.241 394.302C566.231 395.798 566.21 397.891 566.126 400.481C566.116 400.839 566.095 401.207 566.085 401.583C565.981 405.214 565.825 409.701 565.606 414.768C565.596 415.076 565.585 415.375 565.564 415.682C565.273 421.869 564.815 429.072 564.024 440.48C562.556 461.552 559.996 443.377 557.425 450.768C550.284 447.162 542.456 443.385 534.088 439.506C532.578 438.805 531.055 438.102 529.518 437.395C512.78 429.73 494.086 421.698 474.569 413.743C473.799 413.426 473.018 413.11 472.248 412.803C427.541 394.661 378.744 377.016 339.211 365.241C331.581 362.968 324.294 360.917 317.445 359.114C303.018 355.328 290.548 352.679 280.951 351.534C270.959 350.338 264.058 350.765 261.268 353.235C261.164 351.491 261.056 349.822 260.945 348.227C260.904 347.697 260.862 347.176 260.82 346.663C260.885 346.523 260.968 346.389 261.049 346.253C261.06 346.233 261.069 346.213 261.081 346.193C261.101 346.149 261.125 346.106 261.153 346.065C261.184 346.012 261.219 345.961 261.258 345.911C261.291 345.851 261.333 345.794 261.382 345.741C261.476 345.621 261.58 345.493 261.695 345.373C261.779 345.284 261.869 345.198 261.965 345.117C261.997 345.076 262.036 345.038 262.08 345.006C262.122 344.971 262.163 344.929 262.215 344.886C262.237 344.859 262.266 344.836 262.298 344.818C262.381 344.74 262.471 344.669 262.569 344.604C262.94 344.324 263.337 344.066 263.756 343.835C263.901 343.758 264.058 343.681 264.203 343.596C265.252 343.081 266.357 342.646 267.503 342.297C267.899 342.177 268.294 342.066 268.721 341.947C268.877 341.912 269.023 341.87 269.179 341.827C269.408 341.767 269.637 341.707 269.876 341.665C271.063 341.374 272.343 341.126 273.728 340.895C274.144 340.827 274.581 340.759 275.018 340.699C275.372 340.648 275.736 340.596 276.101 340.545C279.192 340.144 282.7 339.844 286.572 339.648C286.937 339.631 287.301 339.614 287.665 339.597C288.092 339.58 288.519 339.562 288.956 339.545C289.32 339.528 289.695 339.52 290.07 339.511C290.434 339.494 290.809 339.486 291.194 339.477C292.245 339.451 293.328 339.426 294.431 339.409C297.575 339.366 300.885 339.383 304.361 339.443C305.975 339.468 307.619 339.511 309.305 339.571C309.41 339.571 309.524 339.58 309.628 339.58C311.096 339.614 312.584 339.674 314.094 339.733C315.155 339.776 316.227 339.819 317.3 339.87C318.309 339.921 319.329 339.973 320.36 340.032C321.161 340.067 321.963 340.118 322.775 340.161C323.462 340.203 324.149 340.246 324.836 340.28C325.658 340.331 326.48 340.383 327.313 340.434C328.458 340.511 329.603 340.588 330.769 340.665C331.924 340.75 333.1 340.836 334.277 340.921C335.453 341.007 336.639 341.101 337.826 341.195C337.951 341.203 338.065 341.212 338.18 341.22C339.263 341.314 340.345 341.4 341.438 341.494C347.496 341.998 353.731 342.587 360.143 343.263C363.973 343.664 367.852 344.094 371.78 344.553C377.745 345.245 383.803 345.997 389.902 346.8C396.012 347.612 402.157 348.469 408.337 349.372C409.898 349.603 411.459 349.834 413.031 350.073C414.946 350.363 416.862 350.66 418.777 350.962C419.984 351.15 421.192 351.338 422.399 351.534C423.836 351.765 425.282 351.996 426.719 352.226C436.181 353.764 445.59 355.405 454.771 357.123C456.28 357.405 457.79 357.695 459.289 357.977C462.286 358.55 465.256 359.131 468.199 359.72C469.011 359.883 469.812 360.045 470.614 360.207C472.622 360.618 474.611 361.028 476.578 361.438V361.446C476.692 361.464 476.807 361.489 476.921 361.515C478.358 361.814 479.784 362.113 481.199 362.421C484.541 363.138 487.827 363.862 491.057 364.591C493.201 365.087 495.324 365.574 497.417 366.069C500.55 366.821 503.62 367.573 506.608 368.325C507.347 368.513 508.086 368.701 508.815 368.881C511 369.445 513.145 370.006 515.247 370.564C516.913 371.008 518.537 371.461 520.14 371.914C521.743 372.367 523.314 372.82 524.855 373.273C525.854 373.563 526.832 373.862 527.801 374.153C529.216 374.58 530.59 375.008 531.943 375.443C532.36 375.572 532.766 375.708 533.172 375.836C533.931 376.076 534.67 376.323 535.399 376.571C535.888 376.725 536.367 376.887 536.846 377.058C537.314 377.212 537.793 377.375 538.251 377.537C538.72 377.691 539.178 377.853 539.636 378.024C540.021 378.152 540.395 378.289 540.76 378.426C541.499 378.69 542.238 378.955 542.956 379.229C543.31 379.366 543.664 379.494 544.018 379.63L544.83 379.938C544.944 379.989 545.059 380.032 545.173 380.075C546.058 380.417 546.911 380.758 547.744 381.1C548.525 381.425 549.285 381.75 550.013 382.066C550.877 382.442 551.7 382.809 552.491 383.185C552.647 383.254 552.803 383.33 552.959 383.399C553.49 383.647 554 383.903 554.51 384.151C555.509 384.655 556.456 385.151 557.341 385.646C558.216 386.142 559.027 386.629 559.787 387.116C559.787 387.124 559.787 387.124 559.798 387.124C560.162 387.364 560.516 387.603 560.849 387.834C561.39 388.218 561.89 388.586 562.348 388.962C562.502 389.078 562.647 389.2 562.785 389.329C562.846 389.37 562.902 389.416 562.952 389.466C563.17 389.662 563.389 389.859 563.597 390.055C563.847 390.295 564.076 390.534 564.295 390.773C564.399 390.893 564.513 391.012 564.607 391.132C564.732 391.277 564.857 391.431 564.961 391.576C565.054 391.696 565.138 391.824 565.221 391.944C565.442 392.252 565.63 392.575 565.783 392.909C565.897 393.137 565.991 393.371 566.064 393.61C566.143 393.837 566.202 394.069 566.241 394.302Z" fill="#EEEEEE"/>
</g>
<defs>
<linearGradient id="paint0_linear_3_2" x1="738.698" y1="312.336" x2="44.4244" y2="235.168" gradientUnits="userSpaceOnUse">
<stop stop-color="#EAE7A1"/>
<stop offset="1" stop-color="#BEBB73"/>
</linearGradient>
<linearGradient id="paint1_linear_3_2" x1="638.82" y1="53.894" x2="170.657" y2="334.882" gradientUnits="userSpaceOnUse">
<stop stop-color="#2E847F"/>
<stop offset="1" stop-color="#2D2C3A"/>
</linearGradient>
<clipPath id="clip0_3_2">
<rect width="819" height="489" fill="white"/>
</clipPath>
</defs>
</svg>
