<svg viewBox="0 0 1065.000000 1068.000000"
    version="1.1"
     xmlns="http://www.w3.org/2000/svg">
  <path fill="none" stroke="lightgrey" d="M3160 10173 c-25 -8 -54 -19 -65 -24 -33 -14 -108 -40 -135 -46 -14
-3 -29 -9 -35 -13 -5 -4 -26 -11 -45 -15 -19 -4 -48 -14 -65 -23 -43 -22 -144
-99 -189 -146 -37 -38 -38 -42 -33 -92 6 -58 45 -129 76 -139 12 -3 40 -3 64
0 l44 7 100 -95 c55 -52 114 -102 132 -111 17 -9 31 -19 31 -21 0 -3 -26 -22
-57 -42 -174 -112 -173 -111 -173 -380 l1 -208 27 -39 c26 -38 66 -63 187
-117 28 -12 64 -32 80 -43 72 -53 137 -86 168 -86 37 0 87 -34 72 -48 -5 -5
-37 -18 -70 -27 -77 -24 -150 -71 -175 -113 -22 -37 -25 -75 -9 -141 11 -51 2
-85 -41 -141 -41 -53 -83 -128 -106 -189 -21 -57 -63 -91 -112 -91 -13 0 -40
-17 -65 -42 -39 -40 -57 -78 -83 -178 -14 -54 -73 -119 -141 -155 -64 -35 -79
-49 -130 -129 -56 -87 -136 -172 -185 -197 -21 -11 -58 -19 -85 -19 -27 0 -64
-5 -83 -10 -29 -8 -37 -7 -47 7 -7 9 -13 28 -13 42 0 29 -46 81 -71 81 -10 0
-30 -6 -46 -14 -15 -8 -41 -20 -57 -28 -17 -7 -50 -35 -75 -62 -25 -26 -88
-90 -138 -142 -94 -94 -99 -105 -95 -174 3 -42 33 -86 83 -119 26 -17 53 -31
59 -31 23 0 70 -35 70 -52 0 -9 -12 -34 -26 -55 -20 -30 -25 -46 -21 -76 10
-71 66 -128 146 -149 8 -2 22 -36 33 -77 10 -40 31 -89 45 -108 38 -50 44
-138 13 -187 -26 -43 -36 -44 -84 -11 -51 35 -95 33 -131 -5 -34 -35 -57 -37
-110 -10 -34 18 -51 19 -131 14 -84 -6 -95 -5 -129 16 -51 31 -77 18 -100 -49
-16 -50 -28 -61 -40 -41 -3 6 -27 10 -53 10 -66 0 -102 -35 -102 -102 0 -26 4
-48 9 -48 5 0 14 -13 19 -29 16 -45 221 -242 311 -298 45 -28 82 -29 157 -2
32 12 76 23 97 26 36 5 38 3 35 -17 -1 -13 -10 -26 -18 -30 -39 -19 -89 -40
-128 -54 -39 -15 -48 -15 -94 -1 -66 19 -89 19 -127 -2 -40 -23 -63 -71 -54
-113 6 -32 35 -65 134 -155 24 -22 62 -67 84 -99 58 -85 210 -232 281 -272 69
-38 140 -46 190 -19 16 8 36 15 45 15 9 0 30 7 45 15 16 8 39 15 52 15 26 0
119 27 142 41 8 5 25 13 36 18 48 21 82 94 92 200 4 36 12 66 18 68 5 2 18
-15 28 -38 18 -40 18 -44 2 -90 -22 -61 -16 -96 35 -201 20 -40 7 -118 -31
-178 -44 -73 -53 -194 -25 -331 9 -41 23 -108 31 -149 9 -41 26 -118 40 -170
13 -52 26 -106 29 -120 3 -14 12 -47 20 -75 34 -124 47 -196 41 -232 -8 -56
21 -220 52 -296 7 -16 12 -30 12 -31 0 -8 43 -94 60 -121 11 -16 23 -37 27
-45 3 -8 18 -33 32 -55 14 -22 30 -48 36 -57 5 -9 32 -49 59 -89 51 -75 86
-175 86 -242 0 -22 6 -62 14 -90 7 -29 21 -86 30 -127 57 -252 110 -367 207
-453 62 -54 109 -121 109 -156 0 -11 4 -22 9 -25 5 -3 12 -23 16 -43 6 -31 63
-163 107 -248 6 -10 19 -68 29 -128 18 -105 37 -177 66 -244 7 -17 13 -36 13
-43 0 -20 79 -174 102 -200 25 -27 123 -100 135 -100 4 0 37 -20 74 -45 58
-39 74 -45 119 -45 79 0 162 52 249 156 5 6 12 41 16 77 5 42 13 71 24 80 25
21 146 57 193 57 23 0 57 5 75 12 27 10 33 17 33 41 0 15 -12 44 -27 64 -18
24 -24 39 -17 47 5 7 24 32 42 56 23 31 32 54 32 82 0 46 14 54 72 40 81 -21
222 32 190 71 -23 27 -43 118 -42 185 1 37 -1 122 -5 189 -6 97 -5 126 6 139
22 27 41 62 98 184 9 19 28 53 42 75 14 22 33 60 42 85 16 46 12 70 -26 160
-4 8 -11 35 -16 60 -5 25 -20 73 -32 107 -21 57 -21 66 -9 117 8 36 11 80 6
128 -9 113 4 175 48 215 33 31 41 33 105 33 l69 0 41 46 c23 26 41 51 41 56 0
6 7 25 15 43 18 36 75 60 118 50 32 -9 144 13 174 32 14 9 40 37 59 61 26 34
34 55 34 86 0 64 28 98 114 141 43 21 88 47 102 58 27 21 74 89 74 108 0 41
66 129 97 129 60 0 190 123 289 273 37 56 79 115 93 130 89 99 99 107 134 107
91 0 249 87 331 182 47 53 62 82 86 162 18 58 19 67 5 106 -32 90 -29 93 155
167 19 8 42 18 50 24 8 5 23 12 33 15 9 4 17 10 17 15 0 5 30 23 67 40 65 30
73 31 146 13 37 -9 72 10 98 55 23 39 22 61 -6 171 -10 36 -21 106 -25 156 -6
77 -13 103 -45 168 -20 42 -41 76 -46 76 -19 0 -19 43 0 86 30 67 27 102 -12
147 -19 20 -40 37 -48 38 -8 0 -39 12 -69 27 -72 36 -76 57 -15 102 25 18 45
39 45 47 0 17 32 33 67 33 36 0 93 50 93 82 0 13 -7 33 -15 45 -19 27 -129
113 -145 113 -17 0 -76 48 -95 76 -15 24 -15 27 1 45 18 20 59 26 69 9 3 -5
26 -10 50 -10 24 0 47 4 50 10 11 18 35 11 59 -17 21 -24 30 -27 90 -26 36 0
69 -4 73 -10 3 -6 5 -52 4 -104 -3 -112 14 -144 85 -162 77 -20 329 -5 492 29
29 6 74 10 100 8 53 -3 52 0 35 -108 -6 -42 -13 -57 -30 -65 -12 -5 -25 -20
-28 -33 -3 -12 -13 -26 -23 -29 -9 -4 -33 -19 -53 -35 -20 -15 -42 -28 -49
-28 -29 0 -78 -42 -96 -82 -29 -64 -24 -112 20 -201 28 -56 54 -92 93 -126 76
-68 120 -73 156 -17 16 24 16 29 2 62 -20 48 -19 69 6 121 23 47 45 55 58 21
51 -131 71 -201 71 -245 0 -19 5 -43 11 -55 6 -11 14 -52 19 -92 18 -157 86
-241 170 -206 50 21 71 80 71 204 0 59 -5 122 -11 141 -13 40 -5 62 43 113 31
32 31 34 29 125 -2 50 -4 103 -5 117 -2 24 1 25 62 28 64 3 100 18 133 57 10
11 17 24 18 30 0 8 12 41 50 140 22 55 33 120 39 215 6 100 8 109 49 181 l42
76 0 121 0 121 47 38 c52 42 103 94 103 104 0 4 16 32 36 62 25 39 45 58 63
62 28 6 99 -6 157 -27 17 -6 43 -8 58 -4 60 15 98 95 61 126 -8 7 -15 17 -15
23 0 6 -8 19 -17 29 -12 13 -14 23 -8 33 73 102 85 126 85 162 0 51 -21 79
-83 108 -37 18 -67 25 -113 25 -66 0 -84 9 -59 30 21 18 20 102 -2 138 -66
105 -128 162 -178 162 -22 0 -84 -41 -141 -94 -60 -56 -86 -64 -133 -41 -144
69 -153 71 -194 33 -46 -44 -87 -110 -87 -142 0 -55 -11 -61 -104 -61 -103 0
-127 -16 -136 -91 -5 -43 -8 -48 -50 -70 -54 -28 -130 -110 -130 -140 0 -19
-7 -22 -65 -29 -70 -7 -121 0 -145 20 -23 19 -43 23 -62 13 -14 -7 -18 -22
-18 -69 0 -106 38 -157 124 -169 l41 -5 2 -72 3 -73 -59 0 c-33 0 -72 -5 -88
-11 -16 -7 -92 -12 -178 -13 -132 -1 -153 -3 -180 -21 -38 -26 -123 -26 -223
0 -83 22 -113 45 -94 75 16 26 15 69 -3 100 -8 14 -15 48 -15 75 -1 28 -9 63
-19 80 -32 55 -131 92 -179 66 -9 -6 -43 -21 -74 -35 -55 -23 -72 -46 -48 -61
6 -3 17 -20 26 -36 14 -28 14 -34 -2 -77 -10 -26 -21 -51 -26 -56 -22 -25 -8
-90 33 -153 l42 -63 -17 -54 c-16 -51 -20 -55 -54 -60 -45 -8 -148 9 -170 26
-11 9 -47 12 -123 11 -101 -2 -112 -1 -176 28 -53 24 -82 30 -133 30 -58 0
-107 13 -150 40 -8 5 -27 14 -42 20 -16 6 -34 27 -47 54 -35 75 -107 112 -234
122 -57 5 -86 -3 -159 -43 -45 -24 -81 -17 -144 29 -33 23 -70 50 -84 59 -32
19 -140 48 -184 48 -39 0 -60 14 -157 104 -69 65 -116 93 -244 151 -16 8 -46
17 -65 20 -39 8 -80 30 -80 44 0 5 11 23 25 39 24 29 48 131 38 159 -9 23 24
59 80 91 67 38 117 98 117 142 0 36 -46 85 -89 93 -15 3 -39 17 -53 30 -76 70
-163 126 -264 169 -17 7 -51 38 -75 68 -35 43 -55 57 -91 68 -49 13 -58 27
-58 89 0 39 -24 95 -62 144 -45 59 -33 78 22 38 32 -24 88 -21 110 6 7 8 18
15 25 15 7 0 36 22 64 50 61 59 67 96 25 160 -22 32 -25 47 -20 78 8 51 -6 67
-74 91 -60 21 -73 44 -46 82 9 14 13 33 9 52 -6 30 -6 30 31 24 54 -9 78 5
106 60 31 61 92 144 121 163 44 30 57 48 69 101 7 30 25 75 41 102 34 56 34
54 10 109 -33 77 -150 172 -242 197 -49 14 -78 9 -119 -18 -17 -11 -47 -16
-96 -16 -46 0 -82 -6 -105 -17 -19 -9 -41 -19 -49 -22 -8 -4 -28 -15 -45 -26
-16 -11 -37 -23 -45 -26 -8 -4 -22 -13 -30 -20 -9 -7 -31 -15 -50 -16 -34 -3
-35 -2 -38 33 -4 52 -26 67 -102 71 l-65 3 -8 46 c-6 30 -18 56 -35 72 -29 28
-117 77 -137 77 -15 0 -66 55 -115 123 -37 52 -109 104 -180 130 -56 21 -176
21 -240 0z m216 -61 c11 -5 35 -17 54 -26 47 -23 79 -52 115 -106 33 -49 102
-120 117 -120 15 0 102 -41 121 -58 10 -9 17 -30 17 -51 1 -63 56 -107 122
-96 44 8 58 -2 58 -42 0 -12 12 -31 28 -43 38 -30 115 -24 163 12 19 15 45 31
59 37 14 6 32 15 40 20 66 37 83 42 153 40 63 -1 79 2 105 21 24 18 37 21 71
15 59 -10 167 -91 197 -147 15 -30 7 -59 -28 -107 -10 -13 -18 -35 -18 -48 0
-35 -14 -57 -83 -126 -37 -37 -73 -85 -90 -119 -29 -62 -52 -73 -91 -43 -24
18 -58 19 -74 3 -15 -15 -15 -43 0 -84 9 -26 8 -38 -5 -67 -10 -19 -17 -44
-17 -55 0 -32 43 -75 86 -87 37 -10 39 -13 44 -55 3 -25 18 -64 34 -87 22 -33
26 -45 17 -61 -11 -20 -125 -102 -142 -102 -4 0 -31 20 -59 45 -53 47 -89 58
-91 28 -4 -89 4 -125 42 -192 30 -52 41 -83 45 -127 8 -96 11 -100 54 -118 22
-9 49 -16 59 -16 10 0 38 -26 64 -60 26 -33 51 -60 57 -60 38 0 213 -105 272
-163 7 -7 34 -23 60 -36 75 -36 80 -48 33 -88 -21 -18 -58 -43 -82 -55 -66
-33 -74 -47 -85 -145 -9 -73 -15 -94 -39 -124 -16 -20 -29 -45 -29 -54 0 -33
40 -83 70 -90 16 -4 32 -11 35 -16 4 -5 17 -9 30 -9 14 0 41 -9 62 -19 21 -11
59 -29 86 -40 27 -12 79 -51 120 -89 96 -91 143 -120 209 -128 89 -10 148 -32
203 -73 117 -88 156 -94 274 -39 67 31 88 32 171 6 70 -21 80 -28 104 -75 25
-49 95 -105 150 -119 14 -3 29 -10 32 -15 3 -5 37 -9 75 -9 57 0 85 -6 147
-32 72 -31 83 -33 180 -30 72 2 110 -2 130 -11 15 -8 58 -20 95 -26 119 -20
172 10 208 116 21 64 21 65 3 101 -11 21 -29 50 -41 65 -13 16 -23 41 -23 55
0 25 33 128 44 140 3 2 -1 20 -9 39 -22 51 -19 59 24 71 89 27 120 5 139 -100
7 -40 15 -87 18 -104 4 -18 1 -35 -5 -38 -43 -27 32 -115 121 -140 147 -41
230 -41 295 1 18 12 52 15 157 14 91 -1 152 3 192 14 32 8 89 15 126 15 62 0
69 2 79 24 9 19 7 29 -6 50 -14 21 -16 39 -11 87 5 56 4 62 -21 85 -18 17 -37
24 -65 24 -45 0 -88 35 -88 71 0 20 3 21 58 14 80 -10 214 -6 230 8 9 7 12 21
8 40 -8 37 37 97 91 122 60 28 83 54 83 94 0 20 4 41 8 47 4 6 36 11 72 11
101 1 124 9 143 49 10 19 17 45 17 57 0 33 61 117 86 117 11 0 47 -13 79 -30
41 -21 73 -30 107 -30 49 0 64 8 139 81 35 33 75 59 91 59 34 -1 128 -126 128
-171 0 -14 -14 -45 -31 -68 -28 -40 -29 -44 -15 -60 13 -14 39 -20 115 -25
103 -6 156 -25 167 -58 7 -22 -20 -73 -63 -121 -38 -42 -37 -64 4 -129 12 -21
23 -45 23 -54 0 -19 -18 -17 -139 10 -84 19 -123 12 -156 -27 -25 -28 -85
-117 -85 -126 -1 -12 -35 -46 -72 -71 -72 -50 -78 -65 -81 -202 l-2 -123 -42
-73 c-39 -67 -43 -80 -43 -142 0 -92 -21 -198 -65 -320 -39 -109 -47 -115
-155 -116 -49 0 -93 -4 -97 -7 -4 -4 -2 -45 5 -90 19 -135 16 -179 -14 -208
-14 -13 -35 -41 -45 -62 -19 -35 -19 -40 -3 -100 21 -82 17 -229 -8 -253 -14
-14 -22 -15 -41 -7 -28 13 -45 63 -56 167 -5 41 -11 79 -15 84 -3 6 -10 36
-15 69 -14 82 -35 152 -68 219 -36 75 -52 94 -80 94 -28 0 -49 -20 -91 -88
-33 -53 -45 -133 -22 -147 18 -11 11 -35 -10 -35 -28 0 -76 57 -118 138 -27
54 -33 75 -29 107 6 41 43 85 73 85 9 0 30 11 48 25 18 14 41 25 50 25 32 0
55 20 62 55 3 20 13 37 23 40 26 8 45 49 37 80 -5 18 0 41 15 71 l23 44 -31
37 -30 38 -104 3 c-75 2 -119 -2 -156 -13 -38 -12 -98 -17 -231 -18 -99 -1
-184 2 -188 6 -5 5 -9 58 -9 118 0 106 -1 111 -25 129 -19 15 -41 20 -92 20
-61 0 -68 2 -91 30 -20 23 -34 30 -60 30 -22 0 -37 -6 -41 -15 -7 -20 -37 -19
-73 2 -28 15 -32 15 -77 -3 -35 -14 -52 -28 -65 -54 -17 -33 -17 -37 0 -75 20
-45 58 -84 109 -112 145 -78 182 -133 88 -133 -32 0 -49 -6 -70 -27 -15 -15
-28 -32 -28 -39 0 -6 -15 -21 -32 -34 -81 -55 -87 -115 -19 -169 22 -17 43
-31 48 -31 11 0 80 -35 98 -50 22 -18 18 -50 -10 -106 -31 -61 -31 -64 3 -100
16 -16 43 -59 60 -97 26 -55 32 -80 32 -135 0 -38 6 -88 14 -113 38 -125 43
-171 21 -189 -13 -11 -23 -10 -56 0 -35 12 -46 11 -91 -5 -28 -10 -92 -42
-141 -71 -50 -30 -100 -56 -111 -59 -66 -18 -110 -43 -158 -88 -28 -26 -30
-31 -23 -75 4 -26 11 -55 16 -64 13 -23 -13 -115 -47 -169 -67 -108 -196 -188
-330 -205 -42 -6 -56 -14 -99 -58 -57 -58 -128 -141 -135 -159 -16 -38 -91
-140 -143 -194 -55 -58 -121 -103 -150 -103 -37 0 -127 -113 -127 -159 0 -14
-28 -60 -49 -81 -9 -9 -50 -33 -91 -54 -41 -20 -86 -47 -98 -59 -36 -33 -62
-91 -62 -138 0 -59 -47 -104 -120 -112 -28 -3 -63 -4 -78 -1 -15 3 -52 -3 -82
-14 -42 -14 -61 -28 -82 -58 -15 -21 -27 -47 -28 -57 0 -10 -13 -31 -28 -47
-25 -24 -36 -28 -90 -29 -139 -2 -213 -116 -196 -302 5 -44 2 -96 -6 -140 -10
-52 -10 -75 -2 -92 18 -36 43 -109 52 -152 4 -22 17 -66 28 -99 18 -54 19 -61
5 -95 -8 -20 -25 -49 -36 -65 -28 -40 -57 -97 -57 -114 0 -7 -21 -45 -47 -85
-47 -71 -48 -73 -47 -152 2 -220 7 -316 21 -373 9 -34 13 -66 9 -70 -4 -4 -49
-6 -100 -4 -86 2 -93 1 -115 -22 -15 -16 -24 -39 -25 -64 -2 -29 -13 -55 -44
-96 -43 -56 -53 -98 -28 -113 7 -4 18 -18 25 -30 11 -22 10 -23 -37 -22 -51 2
-111 -8 -127 -21 -5 -4 -23 -11 -40 -14 -63 -14 -105 -75 -105 -152 0 -44 -4
-51 -48 -94 -53 -51 -121 -90 -156 -90 -13 0 -41 13 -64 30 -23 16 -56 38 -74
48 -109 60 -144 92 -178 167 -12 28 -29 62 -36 77 -8 14 -14 33 -14 41 0 8 -7
28 -15 43 -8 16 -15 38 -15 50 0 11 -5 25 -10 30 -10 10 -17 45 -41 194 -7 43
-30 105 -70 186 -32 67 -59 130 -59 140 -1 11 -7 30 -15 44 -8 14 -14 37 -15
51 0 15 -7 32 -15 39 -8 7 -15 18 -15 24 0 7 -37 48 -83 92 -80 79 -88 91
-143 222 -8 18 -14 40 -14 48 0 9 -6 37 -14 63 -28 88 -52 200 -67 306 -20
136 -45 194 -146 343 -24 34 -43 64 -43 67 0 3 -17 33 -38 67 -21 35 -49 86
-61 113 -13 28 -28 58 -33 68 -5 10 -13 37 -18 60 -5 23 -13 60 -19 82 -6 22
-11 82 -11 133 0 51 -6 114 -14 140 -14 48 -32 118 -46 182 -5 19 -18 71 -30
115 -13 44 -26 100 -30 125 -11 66 -29 158 -42 214 -6 27 -10 83 -10 125 0 76
5 91 57 191 38 72 31 149 -21 243 -21 38 -22 92 -1 115 25 27 21 56 -13 104
-27 40 -29 46 -19 90 17 75 -19 133 -73 120 -27 -6 -56 -90 -63 -182 -3 -47
-11 -104 -17 -127 -12 -49 -62 -101 -109 -113 -19 -5 -54 -14 -79 -20 -25 -6
-89 -25 -142 -43 l-97 -31 -53 24 c-65 30 -244 204 -306 299 -24 35 -65 81
-92 101 -90 67 -110 112 -62 136 16 8 35 9 60 2 92 -24 120 -21 214 28 14 8
32 14 40 14 8 0 28 14 45 30 38 38 51 92 28 126 -13 20 -23 24 -68 24 -47 -1
-147 -27 -164 -44 -10 -10 -56 -6 -79 7 -58 33 -274 244 -300 293 -32 60 2 87
77 61 83 -30 99 -21 99 61 0 24 4 32 18 32 10 0 24 -6 31 -12 8 -9 44 -12 118
-10 83 2 110 -1 123 -13 9 -8 37 -18 62 -21 42 -6 48 -4 85 30 22 20 43 36 46
36 3 0 26 -13 50 -30 53 -36 56 -36 101 -9 57 33 76 77 76 171 0 72 -3 84 -29
123 -16 24 -37 76 -47 117 -20 86 -33 104 -82 113 -46 8 -64 21 -86 62 -16 32
-16 34 8 72 33 51 39 81 27 114 -11 28 -68 69 -111 80 -14 4 -42 20 -62 37
-61 50 -48 101 43 175 28 22 72 70 100 108 28 37 55 67 60 67 4 0 25 11 45 25
21 14 44 24 52 23 9 -2 21 -27 30 -63 20 -83 28 -90 83 -71 24 8 77 17 117 21
40 4 90 15 111 26 51 25 139 112 189 191 66 101 73 108 129 134 55 26 125 97
154 156 9 18 26 66 39 106 24 77 54 112 96 112 51 0 118 53 129 102 4 15 11
30 16 33 5 4 9 13 9 22 0 9 26 54 58 102 83 125 95 161 81 239 -15 82 -2 115
55 141 82 38 114 51 128 51 8 0 30 7 47 16 30 15 32 19 26 52 -12 64 -62 111
-120 112 -20 0 -61 20 -115 55 -81 53 -100 63 -215 114 -30 13 -60 36 -72 54
-21 31 -22 40 -17 212 3 99 7 190 10 202 6 31 40 64 99 99 63 36 125 100 125
128 -1 28 -34 66 -58 66 -11 0 -68 45 -132 105 l-112 105 -59 0 c-48 0 -60 4
-73 22 -22 32 -20 84 4 108 45 45 183 140 203 140 12 0 54 12 92 26 39 14 81
28 95 31 14 3 34 12 45 19 11 8 29 14 40 14 11 0 38 7 60 15 42 16 127 14 161
-3z" />
</svg>